<svg t="1584849086733" class="icon" viewBox="0 0 1024 1024" version="1.1" xmlns="http://www.w3.org/2000/svg" p-id="1342" width="200" height="200"><path d="M282.902505 242.844375l154.503995 576.753338L859.655843 397.381958z m143.420013 143.420013L663.670884 449.879729 489.937859 623.612754z" fill="#348CF7" p-id="1343"></path><path d="M239.863761 199.801289m-140.886061 140.886061a199.242978 199.242978 0 1 0 281.772122-281.772122 199.242978 199.242978 0 1 0-281.772122 281.772122Z" fill="#348CF7" p-id="1344"></path><path d="M863.10896 384.41833m-85.013766 85.013765a120.22762 120.22762 0 1 0 170.027531-170.02753 120.22762 120.22762 0 1 0-170.027531 170.02753Z" fill="#E53575" p-id="1345"></path><path d="M437.804804 853.926438m-120.259031 120.259031a170.071952 170.071952 0 1 0 240.518062-240.518062 170.071952 170.071952 0 1 0-240.518062 240.518062Z" fill="#74BCF7" p-id="1346"></path></svg>